<?xml version="1.0" encoding="utf-8"?>
<!-- Generator: Adobe Illustrator 26.0.1, SVG Export Plug-In . SVG Version: 6.00 Build 0)  -->
<svg version="1.1" id="catalogusnetwerk" xmlns="http://www.w3.org/2000/svg" xmlns:xlink="http://www.w3.org/1999/xlink" x="0px"
	 y="0px" viewBox="0 0 864.2 156.3" style="enable-background:new 0 0 864.2 156.3;" xml:space="preserve">
<style type="text/css">
	.st0{fill:#1E93D2;}
	.st1{display:none;}
	.st2{display:inline;fill:#1E93D2;}
	.st3{font-family:'MagistralBlackC';}
	.st4{font-size:30px;}
	.st5{display:inline;fill:#515254;}
	.st6{font-family:'MagistralC';}
	.st7{display:inline;}
	.st8{fill:#515254;}
	.st9{fill:#868686;}
	.st10{fill:#ECECEC;}
	.st11{fill:#858686;}
</style>
<path id="Marker_00000031185075544031548280000000608770648482518411_" class="st0" d="M100,31.8c-25.6,0-46.4,20.7-46.4,46.4
	s20.7,46.4,46.4,46.4s46.4-20.7,46.4-46.4C146.4,52.6,125.6,31.8,100,31.8 M153.9,76.7c0,32-23.9,49.9-53.9,79.6
	c-30.6-29.5-53.9-47-53.9-79.6c0-29.7,24.1-53.9,53.9-53.9C129.7,22.8,153.9,47,153.9,76.7"/>
<g id="TypeFont__x28_MagistralBlackC_Regular_en_MagistralC_Regular_30pt_x29_" class="st1">
	<text transform="matrix(1 0 0 1 -21.8559 180.4086)" class="st2 st3 st4">catalogus</text>
</g>
<g id="TypeFont__x28_MagistralBlackC_Regular_en_MagistralC_Regular_30pt_x29__00000116229655012510679910000015226289302246433974_" class="st1">
	<text transform="matrix(1 0 0 1 124.9212 180.2791)" class="st5 st6 st4">netwerk</text>
</g>
<g id="TypeFont__x28_MagistralBlackC_Regular_en_MagistralC_Regular_80pt_x29__00000173159026482397899370000018324638520909847196_">
	<g>
		<path class="st0" d="M232.7,94.6c-3.6,0-9.1-0.5-13-5c-3.3-3.8-3.8-9.1-3.8-15.6c0-6.2,0.3-12.8,4.7-17.4
			c3.3-3.4,7.8-4.4,12.8-4.4h22.8v10.7h-15.5c-5.4,0-7.2,2.4-8.1,5.1c-0.6,1.7-0.7,3.4-0.7,5.6c0,4.9,0.9,6.6,1.3,7.4
			c1.9,3.1,6,2.9,8.4,2.9h15.5v10.7H232.7z"/>
		<path class="st0" d="M291.1,52.2c5.2,0,8.6,1.8,10.5,3.7c3.5,3.4,4,8.5,4,11.9v17.8c0,2.2-0.2,4.8-2.1,6.8c-2,2.1-4.8,2.2-7.2,2.2
			h-25c-2.6,0-5.5-0.2-7.8-2.2c-3.3-3-3.4-8.6-3.4-11.9c0-3.7,0.3-8.2,3.7-10.7c2.3-1.8,5-1.8,7.5-1.8h18.6v-0.6
			c0-0.7-0.1-1.8-0.8-2.8c-1.2-1.6-3.2-1.7-4.8-1.7H263V52.2H291.1z M278.7,77.9c-0.5,0-1.6,0.1-2.3,0.7c-0.6,0.6-0.6,1.3-0.6,2
			c0,0.6,0.1,1.3,0.6,1.8c0.6,0.5,1.4,0.7,2.2,0.7h8.2c0.8,0,1.8-0.2,2.3-0.6c0.7-0.6,0.8-1.4,0.8-2.1v-2.6H278.7z"/>
		<path class="st0" d="M332.3,94.6c-3.1,0-8.8,0-13.1-2.9c-3.5-2.4-5.4-6.6-5.4-10.4V63h-6V52.2h6V38.5h15.7v13.6h12.1V63h-12.1v9.7
			c0,3.1,0.4,6.4,2.7,8.5c2.2,1.9,4.9,2,6.9,2h2.3v11.4H332.3z"/>
		<path class="st0" d="M373.8,52.2c5.2,0,8.6,1.8,10.5,3.7c3.5,3.4,4,8.5,4,11.9v17.8c0,2.2-0.2,4.8-2.1,6.8c-2,2.1-4.8,2.2-7.2,2.2
			h-25c-2.6,0-5.5-0.2-7.8-2.2c-3.3-3-3.4-8.6-3.4-11.9c0-3.7,0.3-8.2,3.7-10.7c2.3-1.8,5-1.8,7.5-1.8h18.6v-0.6
			c0-0.7-0.1-1.8-0.8-2.8c-1.2-1.6-3.2-1.7-4.8-1.7h-21.3V52.2H373.8z M361.5,77.9c-0.5,0-1.6,0.1-2.3,0.7c-0.6,0.6-0.6,1.3-0.6,2
			c0,0.6,0.1,1.3,0.6,1.8c0.6,0.5,1.4,0.7,2.2,0.7h8.2c0.8,0,1.8-0.2,2.3-0.6c0.7-0.6,0.8-1.4,0.8-2.1v-2.6H361.5z"/>
		<path class="st0" d="M393.1,38.5h15.7v56h-15.7V38.5z"/>
		<path class="st0" d="M455.9,56c5.3,4.7,5.6,13.1,5.6,17.4c0,4.2-0.3,12.6-5.6,17.4c-4.6,4.1-12.2,4.3-18.9,4.3
			c-6.7,0-14.2-0.2-18.9-4.3c-5.3-4.7-5.6-13.1-5.6-17.4c0-4.2,0.3-12.6,5.6-17.4c4.6-4.1,12.2-4.3,18.9-4.3
			C443.8,51.7,451.3,51.9,455.9,56z M430.1,80.8c0.3,0.5,2.2,2.9,7,2.9c4.2,0,6.2-1.8,6.9-2.9c1.3-1.8,1.6-4.4,1.6-7.4
			c0-4.5-0.7-6.5-1.5-7.6c-0.8-1-2.6-2.7-7-2.7c-4.3,0-6.2,1.7-7,2.7c-0.6,0.8-1.5,2.6-1.5,7.6C428.6,78,429.5,79.9,430.1,80.8z"/>
		<path class="st0" d="M467.4,98.7h18.9c1.7,0,4.2,0.1,5.8-1.1c0.9-0.7,1.6-1.9,1.8-3h-13.5c-4.5,0-9.4-0.3-12.6-5.4
			c-2.3-3.6-3.3-8.6-3.3-16c0-8.2,1.2-12.3,4.3-15.9c3.2-3.8,6.8-5.1,13.4-5.1h17.4c2.5,0,5.4,0.2,7.4,1.9c2.2,1.8,2.5,4.6,2.5,6.4
			v29.4c0,5.6-0.6,10.2-3.4,13.5c-3.2,4.1-8.6,5.6-15,5.6h-23.8V98.7z M493.9,66.9c0-1.1-0.2-2-1.2-2.7c-0.8-0.6-1.7-0.6-2.5-0.6
			h-1.8c-2.2,0-4.6,0.2-6.3,2.3c-0.7,0.9-1.7,2.8-1.7,7.9c0,3.8,0.6,6,1.8,7.3c2,2.3,5,2.2,7.2,2.2h4.5V66.9z"/>
		<path class="st0" d="M530,52.2v21.1c0,4,0.6,6,1.5,7.3c1.8,2.5,4.8,2.6,6.6,2.6h2.9c1.3,0,2.2-0.3,2.7-0.9
			c0.8-0.8,0.8-1.8,0.8-2.6V52.2h15.7v33.8c0,2.4-0.3,4.8-2.6,6.7c-2.2,1.8-5.1,1.9-6.9,1.9h-19.2c-6,0-9.7-1.8-11.8-3.6
			c-4.4-3.6-5.4-9.3-5.4-15.7V52.2H530z"/>
		<path class="st0" d="M564.6,83.2h23.1c0.2,0,0.7-0.2,1-0.3c0.2-0.2,0.4-0.4,0.4-0.8c0-0.6-0.4-0.8-0.7-1c-0.6-0.3-1.4-0.6-4.8-1.7
			l-9.1-3c-3.8-1.3-7.1-3-8.7-5.6c-1.2-2-1.6-5-1.6-7.1c0-2.6,0.5-5.4,2-7.6c2.2-3.4,5.4-4,9.8-4h28.3V63h-23
			c-0.6,0-1.2-0.1-1.8,0.1c-0.4,0.1-0.7,0.2-0.7,0.7c0,0.6,0.4,0.8,0.9,1c1.9,0.6,1.4,0.6,3.2,1.2l10.7,3.6c4.5,1.5,7.8,2.8,9.8,5.8
			c2,2.9,2.2,6.3,2.2,8.2c0,3.1-0.6,6.7-3.5,9c-2.2,1.8-4.8,2-7,2h-30.3V83.2z"/>
	</g>
</g>
<g id="TypeFont__x28_MagistralBlackC_Regular_en_MagistralC_Regular_80pt_x29_">
	<g>
		<path class="st8" d="M609.3,57.7c0-1.1,0.1-2.8,1-3.9c1.1-1.4,2.9-1.6,4.2-1.6h15.2c4,0,7.3,0.6,9.8,3.1c1.3,1.3,3.3,4,3.3,9.8
			v29.4h-4.2V66.2c0-3.6-0.4-5.8-1.8-7.6c-1.8-2.2-4.2-2.6-6.9-2.6h-15c-0.4,0-0.9,0-1.1,0.3c-0.2,0.3-0.2,1-0.2,1.3v37h-4.2V57.7z"
			/>
		<path class="st8" d="M663.8,94.6c-3.4,0-7.9-0.9-11.2-5.2c-3.3-4.2-3.4-9.6-3.4-15.8c0-5.9,0.3-13.1,5.7-17.6
			c3.8-3.2,9-3.8,13.3-3.8c3,0,7.4,0.4,10.8,2.4c1.7,1,6.8,4.6,6.8,13.4c0,1.2-0.1,4.1-1.8,5.5c-1.3,1.1-3.3,1.3-4.5,1.3h-25.8
			c-0.1,2.5,0.1,6.4,0.7,8.6c1,3.4,3.8,7.4,9.4,7.4h20.8v3.8H663.8z M679.4,71c1.8,0,1.8-2.2,1.8-2.8c0-4.2-1.4-7-2.9-8.6
			c-3-3.6-7.2-3.7-11-3.7c-4.2,0-8.8,0.2-11.8,5.1c-1.7,2.8-1.9,5.8-2,10H679.4z"/>
		<path class="st8" d="M707.8,94.6c-3.6,0-7.6,0.2-10.2-2.5c-2.6-2.6-2.9-6.7-2.9-11.8V55.9h-5.8v-3.8h5.8V38.5h4.2v13.6h11.7v3.8
			h-11.7v23.5c0,3.6-0.2,8.5,2.4,10.3c1,0.6,2.8,1,7.5,1h2.2v3.8H707.8z"/>
		<path class="st8" d="M723.1,89.6c0.2,0.6,0.5,1.3,0.9,1.3c0.5,0,0.7-1,0.8-1.2l9-34.5c0.8-3,2.6-3.5,3.8-3.5s3,0.6,3.8,3.5l9,34.5
			c0.1,0.2,0.3,1.2,0.8,1.2c0.4,0,0.7-0.7,0.9-1.3l9.5-37.4h4.2l-10.4,39.4c-0.5,1.8-1.4,3.5-4.1,3.5c-3.1,0-4-2.4-4.3-3.6
			l-8.8-33.1c-0.1-0.5-0.3-1.4-0.6-1.4c-0.3,0-0.6,1-0.6,1.4l-8.8,33.1c-0.3,1.2-1.2,3.6-4.3,3.6c-2.6,0-3.6-1.7-4.1-3.5l-10.4-39.4
			h4.2L723.1,89.6z"/>
		<path class="st8" d="M782.2,94.6c-3.4,0-7.9-0.9-11.2-5.2c-3.3-4.2-3.4-9.6-3.4-15.8c0-5.9,0.3-13.1,5.7-17.6
			c3.8-3.2,9-3.8,13.3-3.8c3,0,7.4,0.4,10.8,2.4c1.7,1,6.8,4.6,6.8,13.4c0,1.2-0.1,4.1-1.8,5.5c-1.3,1.1-3.3,1.3-4.5,1.3H772
			c-0.1,2.5,0.1,6.4,0.7,8.6c1,3.4,3.8,7.4,9.4,7.4H803v3.8H782.2z M797.8,71c1.8,0,1.8-2.2,1.8-2.8c0-4.2-1.4-7-2.9-8.6
			c-3-3.6-7.2-3.7-11-3.7c-4.2,0-8.8,0.2-11.8,5.1c-1.7,2.8-1.9,5.8-2,10H797.8z"/>
		<path class="st8" d="M810.5,66.7c0-4.3,0.6-8.1,3.8-11.1c1.8-1.7,4.7-3.4,10.4-3.4h2.9v3.8H825c-2.3,0-5.8,0.2-8.2,3
			c-1.8,2.2-2.2,5.4-2.2,8.8v26.9h-4.2V66.7z"/>
		<path class="st8" d="M830.7,94.6v-56h4.2v56H830.7z M858.5,94.6l-17.2-15.8c-1-0.9-3.3-3.2-3.3-6.1c0-2.3,1.3-4.1,3.4-6.1
			l15.4-14.4h5.6l-18.4,17.3c-1.1,1.1-1.4,2.3-1.4,3c0,1.4,1.1,3,2.2,4l19.5,18.1H858.5z"/>
	</g>
</g>
<path class="st9" d="M80.6,140.1l-12.1-12.3c-17.5-8.1-47.3-9.4-48.2-9.5l-0.1,0c-8.5,0-10.2-3.3-10.2-8.9V21
	c0-6,5.5-10.2,10.7-10.7l0.5-0.1c0.1,0,14-2.3,45.4,7.7c6.4,2,11.3,4.5,14.3,6.9C86.7,22.4,92,22,92,22c-4.7-7-15.4-11.4-22.4-13.6
	C37.5-1.8,22,0,19.6,0.4C8.6,1.4,0,10.5,0,21v88.4c0,7.1,2,18.6,20.1,18.9c5.6,0.1,22,1.3,45.6,8.8c0,0,5.5,2,6.7,2.4
	C73.6,140.1,78.4,141.2,80.6,140.1z"/>
<path class="st9" d="M119.3,140.1l12.1-12.3c17.5-8.1,47.3-9.4,48.2-9.5l0.1,0c8.5,0,10.2-3.3,10.2-8.9V21c0-6-5.5-10.2-10.7-10.7
	l-0.5-0.1c-0.1,0-14-2.3-45.4,7.7c-6.4,2-11.3,4.5-14.3,6.9c-5.8-2.4-11.1-2.7-11.1-2.7c4.7-7,15.4-11.4,22.4-13.6
	c32.1-10.2,47.5-8.4,50-8c11,1.1,19.6,10.1,19.6,20.6v88.4c0,7.1-2,18.6-20.1,18.9c-5.6,0.1-22,1.3-45.6,8.8c0,0-5.5,2-6.7,2.4
	C126.3,140.1,121.5,141.2,119.3,140.1z"/>
<g id="cn-bol">
	<g id="cn-globe_00000075161438073193203980000000483579960668822927_">
		<path class="st10" d="M142.4,78.9c0-23.5-19-42.5-42.5-42.5c-10.3,0-19.8,3.7-27.2,9.8l59.8,59.8
			C138.7,98.7,142.4,89.2,142.4,78.9z"/>
		<path class="st10" d="M72.7,46.3c-9.3,7.8-15.3,19.5-15.3,32.6c0,23.5,19,42.5,42.5,42.5c13.1,0,24.8-5.9,32.6-15.3L72.7,46.3z"/>
	</g>
	<g id="cn-shadow_00000168111986306248135600000013471872268150342557_">
		<defs>
			<path id="SVGID_1_" d="M142.5,80.3c-0.8,23.4-20.5,41.8-43.9,41c-23.5-0.8-41.8-20.5-41-43.9c0.8-23.4,20.5-41.8,43.9-41
				S143.3,56.9,142.5,80.3z"/>
		</defs>
		<clipPath id="SVGID_00000137126450326242364680000014434050662188836489_">
			<use xlink:href="#SVGID_1_"  style="overflow:visible;"/>
		</clipPath>
	</g>
	<g id="cn">
		<g>
			<path class="st0" d="M96.7,116.4c-1.3-0.4-2.7-0.8-4-1.3c-1.5-0.6-2.9-1.2-4.3-1.9c-1.7-0.9-3.3-1.8-4.8-2.9
				c-2.5-1.7-4.8-3.7-6.9-5.8c-2.3-2.4-4.3-5.1-6-8c-1.4-2.3-2.5-4.8-3.4-7.4c-0.5-1.5-0.9-2.8-1.2-4.4l-0.1-0.3
				c-0.3-1.3-0.5-2.6-0.6-4c0-0.5-0.1-0.9-0.1-1.4c0-0.8-0.1-1.6-0.1-2.5c0-1.3,0.1-2.6,0.2-3.9c0.1-1.4,0.3-2.8,0.6-4.1
				c0.3-1.6,0.6-3.1,1-4.5c0.5-1.8,1.1-3.5,1.7-5.1c0.9-2.2,1.8-4.2,2.6-5.8c1.5-2.9,2.7-4.7,2.9-4.9l-1.1,0.6
				c-0.2,0.2-1.4,2-2.9,4.9c-0.8,1.6-1.8,3.6-2.6,5.8c-0.6,1.6-1.2,3.3-1.7,5.1c-0.4,1.4-0.8,3-1,4.5c-0.2,1.3-0.4,2.7-0.6,4.1
				c-0.1,1.3-0.2,2.6-0.2,3.9c0,0.8,0,1.6,0.1,2.5c0,0.5,0.1,0.9,0.1,1.4c0.1,1.3,0.3,2.7,0.6,4l0,0.1c0.3,1.6,0.7,3.1,1.2,4.6
				c0.9,2.6,2,5.1,3.4,7.4c1.7,2.9,3.7,5.6,6,8c2.1,2.2,4.4,4.1,6.9,5.8c1.5,1.1,3.2,2,4.8,2.9c1.4,0.7,2.8,1.4,4.3,1.9l0,0
				c1.3,0.5,2.6,1,4,1.3l0,0c1.3,0.4,2.5,0.6,3.8,0.9c1.2,0.2,2.5,0.4,3.7,0.5c0.9,0.1,1.9,0.1,2.8,0.2l1.1-0.6
				c-0.9,0-1.9-0.1-2.8-0.2c-1.3-0.1-2.5-0.3-3.7-0.5C99.2,117.1,97.9,116.8,96.7,116.4L96.7,116.4z"/>
			<path class="st0" d="M64.2,79.6c1.3,21.9,20.8,38.4,41.6,39c-0.6,0.1-0.9,0.2-1.1,0.2c-1.3,0.2-1.3,0.2-1.4,0.2
				c-0.1,0-0.2,0-0.2,0c-0.2,0-0.3,0-0.4,0c-0.2,0-0.2,0-0.3,0c-0.5,0-0.6,0-0.6,0c-0.2,0-0.3,0-0.3,0c-0.2,0-0.3,0-0.3,0
				c-0.2,0-0.3,0-0.3,0c-0.2,0-0.3,0-0.4,0c-0.2,0-0.3,0-0.4,0c-0.4,0-0.6,0-0.7,0c-0.1,0-0.1,0-0.2,0c-0.2,0-0.4,0-0.6,0
				c-0.3,0-0.5,0-0.7,0C81,118.6,64.9,105.8,61,89.5c0-0.1,0-0.1,0-0.2c0-0.2-0.1-0.2-0.1-0.3c0-0.1,0-0.2-0.1-0.3
				c0-0.2-0.1-0.3-0.1-0.4c0-0.2-0.1-0.3-0.1-0.5c0-0.2-0.1-0.4-0.1-0.5c0-0.2-0.1-0.4-0.1-0.6c0-0.3-0.1-0.4-0.1-0.6
				c-0.1-0.5-0.1-0.9-0.2-1.3c0-0.3-0.1-0.5-0.1-0.8c0-0.4-0.1-0.6-0.1-0.8c0-0.3,0-0.5-0.1-0.7c0-0.4,0-0.6-0.1-0.9
				c0-0.4,0-0.7,0-0.9c0-0.3,0-0.6,0-0.8l0-0.4c0-0.1,0-0.2,0-0.3c0-0.1,0-0.3,0-0.4c0-0.1,0-0.2,0-0.2c0-0.1,0-0.3,0-0.4
				c0-0.1,0-0.1,0-0.2c0-0.2,0-0.3,0-0.5c0-0.3,0-0.6,0-0.8c0-0.2,0-0.5,0-0.7c0-0.3,0-0.5,0-0.7c0-0.1,0-0.1,0-0.2
				c0-0.2,0-0.3,0-0.5c0-0.1,0-0.2,0-0.3c0-0.1,0-0.3,0-0.4c0-0.1,0-0.2,0-0.2c0-0.2,0-0.3,0.1-0.5c0-0.1,0-0.1,0-0.2
				c0-0.2,0-0.4,0.1-0.5c0.1-0.6,0.2-1.1,0.3-1.6c0-0.1,0-0.1,0-0.2c0-0.2,0.1-0.4,0.1-0.5c0-0.1,0-0.2,0.1-0.3
				c0-0.2,0.1-0.3,0.1-0.5c0-0.1,0-0.2,0.1-0.3c0-0.2,0.1-0.3,0.1-0.5c0-0.1,0-0.2,0.1-0.3c0-0.2,0.1-0.3,0.1-0.5
				c0-0.1,0-0.2,0.1-0.3c0-0.2,0.1-0.4,0.2-0.5c0-0.1,0-0.1,0.1-0.2c0.1-0.3,0.1-0.5,0.2-0.8c0.1-0.3,0.2-0.5,0.2-0.8
				c0-0.1,0.1-0.2,0.1-0.2c0.1-0.2,0.1-0.4,0.2-0.5c0-0.1,0.1-0.2,0.1-0.3c0.1-0.2,0.1-0.3,0.2-0.5c0-0.1,0.1-0.2,0.1-0.3
				c0.1-0.2,0.1-0.3,0.2-0.5c0-0.1,0.1-0.2,0.1-0.3c0.1-0.2,0.1-0.3,0.2-0.5c0-0.1,0.1-0.2,0.1-0.3c0.1-0.2,0.2-0.3,0.2-0.5
				c0-0.1,0.1-0.2,0.1-0.2c0.1-0.3,0.2-0.5,0.4-0.8c0.1-0.3,0.3-0.5,0.4-0.8c0-0.1,0.1-0.2,0.1-0.2c0.1-0.2,0.2-0.3,0.3-0.5
				c0.1-0.1,0.1-0.2,0.2-0.3c0.1-0.2,0.2-0.3,0.3-0.5c0.1-0.1,0.1-0.2,0.2-0.3c0.1-0.1,0.2-0.3,0.3-0.4c0.1-0.1,0.1-0.2,0.2-0.3
				c0.1-0.2,0.2-0.3,0.3-0.5c0.1-0.1,0.1-0.2,0.2-0.3c0.1-0.2,0.2-0.3,0.3-0.5c0.1-0.1,0.1-0.2,0.2-0.3c0.2-0.2,0.4-0.5,0.5-0.7
				c2.8-3.8,5.7-6,5.9-6.1C72.7,49.4,63.3,63.1,64.2,79.6z"/>
		</g>
		<g>
			<path class="st11" d="M88,35.8c-14.9,8-3.5,22.7,9.8,39.8c19.8,25.5,30.6,39.2,16.7,44.6c-2.3,0.9-4.6,1.3-5.8,1.6
				c13.2-4.4,5-15.5-9.4-33.5C80.6,65,68.4,45.1,82.2,37.8C83.8,36.9,85.8,36.2,88,35.8"/>
			<path class="st11" d="M88.2,35.7c-15.7,7.1-0.9,18.8,16.3,32.4c25,19.8,36.9,31,27.2,41.3c-2.3,2.4-3.8,3.3-4.6,3.9
				c9.9-10.1-1-19.3-26.4-40c-17.2-14.1-31.2-28.5-18-35.5C84.2,36.9,85.8,36.2,88.2,35.7"/>
			<path class="st11" d="M107.7,34.5c-17.9-2-6.9,11.9-2.7,17.2c6.5,8.2,13.8,15.8,20.1,24.1c2.4,3.1,5.7,7.9,8,12.9
				c5.2,11.3,2.4,16.7-1.4,20.8c-1.2,1.4-1.5,1.5-1.5,1.5c-1.6,1.5-3.7,2.9-3.7,2.9c9.4-8.8,5.9-20.8-15.7-46.8
				c-13.7-16.5-26.4-33.2-8.2-33.3C104,33.8,106,34.3,107.7,34.5"/>
		</g>
	</g>
</g>
</svg>
