<?xml version="1.0" encoding="utf-8"?>
<!-- Generator: Adobe Illustrator 25.4.8, SVG Export Plug-In . SVG Version: 6.00 Build 0)  -->
<svg version="1.1" id="Laag_1" xmlns="http://www.w3.org/2000/svg" xmlns:xlink="http://www.w3.org/1999/xlink" x="0px" y="0px"
	 viewBox="0 0 200 155.9" style="enable-background:new 0 0 200 155.9;" xml:space="preserve">
<style type="text/css">
	.st0{fill:#1E93D2;}
	.st1{display:none;fill:#868686;}
	.st2{fill:#868686;}
</style>
<g>
	<path id="Marker_00000031185075544031548280000000608770648482518411_" class="st0" d="M100,31.4c-25.6,0-46.4,20.7-46.4,46.4
		s20.7,46.4,46.4,46.4s46.4-20.7,46.4-46.4C146.4,52.2,125.6,31.4,100,31.4 M153.9,76.3c0,32-23.9,49.9-53.9,79.6
		c-30.6-29.5-53.9-47-53.9-79.6c0-29.7,24.1-53.9,53.9-53.9C129.7,22.4,153.9,46.6,153.9,76.3"/>
	<g>
		<path class="st1" d="M83,38.5v78.7c3.5,1.9,7.2,3.4,11.1,4.1l0-87C90.2,35.2,86.4,36.6,83,38.5z"/>
		<path class="st1" d="M117.6,118.7V37c-3.4-1.4-7-2.3-10.7-2.7v87C110.6,121,114.2,120.1,117.6,118.7z"/>
		<path class="st2" d="M118.8,23.8c0,0,7.9-6.5,33.3-11.1s29.7-3.4,29.7-3.4s5.6,0.4,7.4,6.2c0.3,1,0.4,2,0.4,3l0.6,92.4
			c0,0,0.1,5.9-6.9,7.3c-4,0-23.4,2.5-29.3,3.8c-5.9,1.2-20.1,4.6-23.8,6.3l-10.9,11c0,0,3.1,1.7,10.7-1.5
			c8.1-3.4,32.6-8.7,32.6-8.7s17.3-2,22.8-2.6c5.8-0.7,5.9-1.4,5.9-1.4s7.4-4,8.3-14.4c1-10.3-0.8-94.8-0.8-94.8s-0.1-11.8-16.1-15
			c-18-3.7-53.1,8.3-58.7,10.7c-5.6,2.4-11.3,5.1-14.1,7.8c-2.6,2.5-2.1,1.9-2.1,1.9S112.8,21.4,118.8,23.8z"/>
		<path class="st2" d="M81.2,24.2c0,0-7.9-6.5-33.3-11.1S18.2,9.7,18.2,9.7s-6.7,0.5-7.8,8l-0.7,93.6c0,0-0.1,5.9,6.9,7.3
			c4,0,23.4,2.5,29.3,3.8c5.9,1.2,20.1,4.6,23.8,6.3l10.9,11c0,0-3.1,1.7-10.7-1.5c-8.1-3.4-32.6-8.7-32.6-8.7s-17.3-2-22.8-2.6
			c-5.8-0.7-5.9-1.4-5.9-1.4s-7.4-4-8.3-14.4C-0.7,100.6,1,16.2,1,16.2s0.1-11.8,16.1-15c18-3.7,53.1,8.3,58.7,10.7
			c5.6,2.4,11.3,5.1,14.1,7.8c2.6,2.5,2.1,1.9,2.1,1.9S87.2,21.9,81.2,24.2z"/>
	</g>
</g>
</svg>
